<?xml version="1.0" encoding="UTF-8"?>
<svg width="111px" height="53px" viewBox="0 0 111 53" version="1.1" xmlns="http://www.w3.org/2000/svg" xmlns:xlink="http://www.w3.org/1999/xlink">
    <!-- Generator: Sketch 51 (57462) - http://www.bohemiancoding.com/sketch -->
    <title>logo</title>
    <desc>Created with Sketch.</desc>
    <defs>
        <path d="M19.1131641,14.00525 L19.1128173,14.0055987 C18.8166935,14.0097829 18.5198762,14.0240789 18.2230588,14.0453487 C18.1925449,14.0474408 18.1623777,14.0502303 18.1325573,14.0523224 C17.8548111,14.0739408 17.5774118,14.1032303 17.3000124,14.1398421 C17.2722724,14.1433289 17.2448793,14.1464671 17.2178328,14.1503026 C16.6085944,14.2339868 16.0014365,14.3525395 15.3980929,14.5101447 C15.3807554,14.5150263 15.3637647,14.5206053 15.3464272,14.5251382 C15.0811641,14.5955724 14.8169412,14.6736776 14.5537585,14.7584079 C14.4771269,14.7828158 14.4008421,14.8096645 14.3242105,14.8358158 C14.1182415,14.9059013 13.9129659,14.9801711 13.7083839,15.0589737 C13.6182291,15.0941908 13.5280743,15.1294079 13.4379195,15.1660197 C13.2392322,15.2472632 13.0412384,15.3340855 12.8442848,15.4240461 C12.761065,15.4620526 12.6778452,15.4976184 12.5949721,15.5373684 C12.3206935,15.6684737 12.0481486,15.8058553 11.7787245,15.9540461 C4.11695356,20.1689408 1.30377709,29.8313289 5.49493498,37.5358553 C5.61872446,37.7631974 5.74806192,37.9860066 5.88121362,38.2046316 C5.92559752,38.2782039 5.97310217,38.3489868 6.01852632,38.4211645 C6.10902786,38.5651711 6.20022291,38.7084803 6.29488545,38.8486513 C6.35175232,38.9326842 6.41069969,39.0149737 6.46895356,39.0979605 C6.55598762,39.2213947 6.64336842,39.3444803 6.73317647,39.465125 C6.79836533,39.5519474 6.86459443,39.637375 6.93082353,39.7228026 C7.01855108,39.8350789 7.10731889,39.9463092 7.19747368,40.0557961 C7.26786378,40.1415724 7.33929412,40.227 7.41211146,40.3113816 C7.50157276,40.4156382 7.5927678,40.5174539 7.68465635,40.6189211 C7.76059443,40.7029539 7.83653251,40.7873355 7.91420433,40.8692763 C8.00609288,40.9662105 8.10006192,41.0607039 8.19403096,41.1555461 C8.27447678,41.2364408 8.35457585,41.3183816 8.43675542,41.3978816 C8.53141796,41.4885395 8.62850774,41.5760592 8.72490402,41.6642763 C8.80985759,41.7420329 8.89342415,41.8215329 8.98011146,41.8971974 C9.08829721,41.9923882 9.19995046,42.0830461 9.31091022,42.17475 C9.48324458,42.3173618 9.65869969,42.4564868 9.83658204,42.5914276 C9.91668111,42.65175 9.99573994,42.7141645 10.077226,42.7734408 C10.1913065,42.8567763 10.3078142,42.9362763 10.424322,43.016125 C10.5040743,43.0715658 10.5838266,43.1273553 10.6649659,43.1810526 C10.7845944,43.2602039 10.9056099,43.3358684 11.0269721,43.4115329 C11.1067245,43.4613947 11.1864768,43.5112566 11.2672693,43.5590263 C11.3924458,43.6339934 11.517969,43.7065197 11.6448793,43.778 C11.7228978,43.8219342 11.8012632,43.8644737 11.8799752,43.9070132 C12.0117399,43.9781447 12.1438514,44.0478816 12.2770031,44.1148289 C12.3505139,44.1517895 12.4240248,44.1870066 12.4978824,44.2225724 C12.6386625,44.2909145 12.7797895,44.3585592 12.9219567,44.4223684 C12.9829845,44.4495658 13.0443591,44.4746711 13.105387,44.5008224 C13.2621176,44.5688158 13.419195,44.6368092 13.5783529,44.6999211 C10.511356,47.7955395 6.12601858,50.8929013 0,52.6513158 C17.911678,49.7324803 23.6822786,32.9862237 23.6822786,32.9862237 L14.0003467,34.7871776 C14.0003467,34.7871776 28.7184644,19.3973026 15.4612012,0.219671053 C18.0323467,5.02942105 19.0448545,9.69795395 19.1131641,14.00525" id="path-1"></path>
        <linearGradient x1="0%" y1="49.9999002%" x2="100.000587%" y2="49.9999002%" id="linearGradient-3">
            <stop stop-color="#28AAE1" offset="0%"></stop>
            <stop stop-color="#1A75BA" offset="100%"></stop>
        </linearGradient>
        <path d="M3.94808669,12.9306053 L12.8727183,12.1404868 C9.25855108,20.8492237 4.93944272,27.0007105 0.0523591331,31.1183224 C0.153956656,31.1106513 0.25555418,31.104375 0.357151703,31.0949605 C0.488569659,31.0827566 0.619987616,31.0681118 0.751405573,31.0524211 C0.886291022,31.0367303 1.02117647,31.0206908 1.15606192,31.0011645 C1.26147368,30.9861711 1.36688545,30.9683882 1.47229721,30.9509539 C1.60302167,30.9296842 1.73374613,30.9063224 1.86412384,30.8815658 C1.96606811,30.8623882 2.06801238,30.8421645 2.16960991,30.8205461 C2.31177709,30.7905592 2.45290402,30.7570855 2.59437771,30.7229145 C2.68349226,30.7016447 2.77260681,30.6814211 2.86137461,30.6584079 C3.08537461,30.6001776 3.30868111,30.5377632 3.53164087,30.4694211 C3.57602477,30.4554737 3.61971517,30.4394342 3.66444582,30.4254868 C3.85030341,30.3662105 4.03581424,30.3041447 4.22028483,30.2375461 C4.3003839,30.2086053 4.37978947,30.1779211 4.4595418,30.1475855 C4.61107121,30.0904013 4.76225387,30.0307763 4.91239628,29.9687105 C4.9949226,29.9345395 5.07744892,29.8996711 5.15928173,29.8644539 C5.31462539,29.7971579 5.46858204,29.726375 5.6225387,29.6538487 C5.69362229,29.6196776 5.76505263,29.5875987 5.83578947,29.5527303 C6.05840248,29.4435921 6.27962848,29.3302697 6.49877399,29.209625 C14.1608916,24.9947303 16.9737214,15.3319934 12.7822167,7.62781579 C12.6452508,7.37641447 12.5023901,7.13059211 12.3543282,6.88965132 C12.3068235,6.81259211 12.2561981,6.73901974 12.2076533,6.66300658 C12.104322,6.50121711 12.000644,6.33907895 11.8924582,6.18182237 C11.8331641,6.09604605 11.7707492,6.01305921 11.7097214,5.92867763 C11.6070836,5.78536842 11.5040991,5.64310526 11.3973003,5.50432895 C11.3321115,5.41959868 11.2644954,5.33800658 11.1975728,5.25501974 C11.0900805,5.12042763 10.981548,4.98723026 10.8698947,4.85717105 C10.8015851,4.77801974 10.7322353,4.70061184 10.6625387,4.62285526 C10.5470712,4.49349342 10.4302167,4.365875 10.310935,4.24069737 C10.2422786,4.16851974 10.1718885,4.09738816 10.1018452,4.02660526 C9.97632198,3.90003289 9.84906502,3.77590132 9.7200743,3.65421053 C9.65280495,3.59109868 9.58518885,3.52833553 9.51722601,3.46626974 C9.37852632,3.34039474 9.23774613,3.21730921 9.0952322,3.09666447 C9.03316409,3.04401316 8.97109598,2.99171053 8.90868111,2.94010526 C8.75299071,2.81283553 8.59487307,2.68905263 8.43536842,2.56805921 C8.38231579,2.52796053 8.32960991,2.48716447 8.27621053,2.44741447 C8.09659443,2.31491447 7.91385759,2.18694737 7.72904025,2.06246711 C7.69332508,2.03840789 7.65865015,2.01365132 7.62293498,1.98994079 C7.40205573,1.84349342 7.17770898,1.702625 6.95024149,1.56768421 C6.94989474,1.56768421 6.94954799,1.56733553 6.94954799,1.56698684 C6.07608669,1.04953947 5.15650774,0.620309211 4.20676161,0.281388158 C6.47519505,7.97754605 3.94808669,12.9306053 3.94808669,12.9306053" id="path-4"></path>
        <linearGradient x1="-0.00129571517%" y1="50.0003807%" x2="100.000497%" y2="50.0003807%" id="linearGradient-6">
            <stop stop-color="#28AAE1" offset="0%"></stop>
            <stop stop-color="#1A75BA" offset="100%"></stop>
        </linearGradient>
        <polygon id="path-7" points="0.184366563 0.0689005448 70.203195 0.0689005448 70.203195 19.5952163 0.184366563 19.5952163"></polygon>
    </defs>
    <g id="Symbols" stroke="none" stroke-width="1" fill="none" fill-rule="evenodd">
        <g id="Footer" transform="translate(-75.000000, -64.000000)">
            <g transform="translate(75.000000, 64.000000)" id="logo/color">
                <g>
                    <g id="Group">
                        <g id="Group-3" transform="translate(0.000000, 0.129013)">
                            <mask id="mask-2" fill="white">
                                <use xlink:href="#path-1"></use>
                            </mask>
                            <g id="Clip-2"></g>
                            <path d="M19.1131641,14.00525 L19.1128173,14.0055987 C18.8166935,14.0097829 18.5198762,14.0240789 18.2230588,14.0453487 C18.1925449,14.0474408 18.1623777,14.0502303 18.1325573,14.0523224 C17.8548111,14.0739408 17.5774118,14.1032303 17.3000124,14.1398421 C17.2722724,14.1433289 17.2448793,14.1464671 17.2178328,14.1503026 C16.6085944,14.2339868 16.0014365,14.3525395 15.3980929,14.5101447 C15.3807554,14.5150263 15.3637647,14.5206053 15.3464272,14.5251382 C15.0811641,14.5955724 14.8169412,14.6736776 14.5537585,14.7584079 C14.4771269,14.7828158 14.4008421,14.8096645 14.3242105,14.8358158 C14.1182415,14.9059013 13.9129659,14.9801711 13.7083839,15.0589737 C13.6182291,15.0941908 13.5280743,15.1294079 13.4379195,15.1660197 C13.2392322,15.2472632 13.0412384,15.3340855 12.8442848,15.4240461 C12.761065,15.4620526 12.6778452,15.4976184 12.5949721,15.5373684 C12.3206935,15.6684737 12.0481486,15.8058553 11.7787245,15.9540461 C4.11695356,20.1689408 1.30377709,29.8313289 5.49493498,37.5358553 C5.61872446,37.7631974 5.74806192,37.9860066 5.88121362,38.2046316 C5.92559752,38.2782039 5.97310217,38.3489868 6.01852632,38.4211645 C6.10902786,38.5651711 6.20022291,38.7084803 6.29488545,38.8486513 C6.35175232,38.9326842 6.41069969,39.0149737 6.46895356,39.0979605 C6.55598762,39.2213947 6.64336842,39.3444803 6.73317647,39.465125 C6.79836533,39.5519474 6.86459443,39.637375 6.93082353,39.7228026 C7.01855108,39.8350789 7.10731889,39.9463092 7.19747368,40.0557961 C7.26786378,40.1415724 7.33929412,40.227 7.41211146,40.3113816 C7.50157276,40.4156382 7.5927678,40.5174539 7.68465635,40.6189211 C7.76059443,40.7029539 7.83653251,40.7873355 7.91420433,40.8692763 C8.00609288,40.9662105 8.10006192,41.0607039 8.19403096,41.1555461 C8.27447678,41.2364408 8.35457585,41.3183816 8.43675542,41.3978816 C8.53141796,41.4885395 8.62850774,41.5760592 8.72490402,41.6642763 C8.80985759,41.7420329 8.89342415,41.8215329 8.98011146,41.8971974 C9.08829721,41.9923882 9.19995046,42.0830461 9.31091022,42.17475 C9.48324458,42.3173618 9.65869969,42.4564868 9.83658204,42.5914276 C9.91668111,42.65175 9.99573994,42.7141645 10.077226,42.7734408 C10.1913065,42.8567763 10.3078142,42.9362763 10.424322,43.016125 C10.5040743,43.0715658 10.5838266,43.1273553 10.6649659,43.1810526 C10.7845944,43.2602039 10.9056099,43.3358684 11.0269721,43.4115329 C11.1067245,43.4613947 11.1864768,43.5112566 11.2672693,43.5590263 C11.3924458,43.6339934 11.517969,43.7065197 11.6448793,43.778 C11.7228978,43.8219342 11.8012632,43.8644737 11.8799752,43.9070132 C12.0117399,43.9781447 12.1438514,44.0478816 12.2770031,44.1148289 C12.3505139,44.1517895 12.4240248,44.1870066 12.4978824,44.2225724 C12.6386625,44.2909145 12.7797895,44.3585592 12.9219567,44.4223684 C12.9829845,44.4495658 13.0443591,44.4746711 13.105387,44.5008224 C13.2621176,44.5688158 13.419195,44.6368092 13.5783529,44.6999211 C10.511356,47.7955395 6.12601858,50.8929013 0,52.6513158 C17.911678,49.7324803 23.6822786,32.9862237 23.6822786,32.9862237 L14.0003467,34.7871776 C14.0003467,34.7871776 28.7184644,19.3973026 15.4612012,0.219671053 C18.0323467,5.02942105 19.0448545,9.69795395 19.1131641,14.00525" id="Fill-1" fill="url(#linearGradient-3)" mask="url(#mask-2)"></path>
                        </g>
                        <g id="Group-6" transform="translate(20.458204, 14.773750)">
                            <mask id="mask-5" fill="white">
                                <use xlink:href="#path-4"></use>
                            </mask>
                            <g id="Clip-5"></g>
                            <path d="M3.94808669,12.9306053 L12.8727183,12.1404868 C9.25855108,20.8492237 4.93944272,27.0007105 0.0523591331,31.1183224 C0.153956656,31.1106513 0.25555418,31.104375 0.357151703,31.0949605 C0.488569659,31.0827566 0.619987616,31.0681118 0.751405573,31.0524211 C0.886291022,31.0367303 1.02117647,31.0206908 1.15606192,31.0011645 C1.26147368,30.9861711 1.36688545,30.9683882 1.47229721,30.9509539 C1.60302167,30.9296842 1.73374613,30.9063224 1.86412384,30.8815658 C1.96606811,30.8623882 2.06801238,30.8421645 2.16960991,30.8205461 C2.31177709,30.7905592 2.45290402,30.7570855 2.59437771,30.7229145 C2.68349226,30.7016447 2.77260681,30.6814211 2.86137461,30.6584079 C3.08537461,30.6001776 3.30868111,30.5377632 3.53164087,30.4694211 C3.57602477,30.4554737 3.61971517,30.4394342 3.66444582,30.4254868 C3.85030341,30.3662105 4.03581424,30.3041447 4.22028483,30.2375461 C4.3003839,30.2086053 4.37978947,30.1779211 4.4595418,30.1475855 C4.61107121,30.0904013 4.76225387,30.0307763 4.91239628,29.9687105 C4.9949226,29.9345395 5.07744892,29.8996711 5.15928173,29.8644539 C5.31462539,29.7971579 5.46858204,29.726375 5.6225387,29.6538487 C5.69362229,29.6196776 5.76505263,29.5875987 5.83578947,29.5527303 C6.05840248,29.4435921 6.27962848,29.3302697 6.49877399,29.209625 C14.1608916,24.9947303 16.9737214,15.3319934 12.7822167,7.62781579 C12.6452508,7.37641447 12.5023901,7.13059211 12.3543282,6.88965132 C12.3068235,6.81259211 12.2561981,6.73901974 12.2076533,6.66300658 C12.104322,6.50121711 12.000644,6.33907895 11.8924582,6.18182237 C11.8331641,6.09604605 11.7707492,6.01305921 11.7097214,5.92867763 C11.6070836,5.78536842 11.5040991,5.64310526 11.3973003,5.50432895 C11.3321115,5.41959868 11.2644954,5.33800658 11.1975728,5.25501974 C11.0900805,5.12042763 10.981548,4.98723026 10.8698947,4.85717105 C10.8015851,4.77801974 10.7322353,4.70061184 10.6625387,4.62285526 C10.5470712,4.49349342 10.4302167,4.365875 10.310935,4.24069737 C10.2422786,4.16851974 10.1718885,4.09738816 10.1018452,4.02660526 C9.97632198,3.90003289 9.84906502,3.77590132 9.7200743,3.65421053 C9.65280495,3.59109868 9.58518885,3.52833553 9.51722601,3.46626974 C9.37852632,3.34039474 9.23774613,3.21730921 9.0952322,3.09666447 C9.03316409,3.04401316 8.97109598,2.99171053 8.90868111,2.94010526 C8.75299071,2.81283553 8.59487307,2.68905263 8.43536842,2.56805921 C8.38231579,2.52796053 8.32960991,2.48716447 8.27621053,2.44741447 C8.09659443,2.31491447 7.91385759,2.18694737 7.72904025,2.06246711 C7.69332508,2.03840789 7.65865015,2.01365132 7.62293498,1.98994079 C7.40205573,1.84349342 7.17770898,1.702625 6.95024149,1.56768421 C6.94989474,1.56768421 6.94954799,1.56733553 6.94954799,1.56698684 C6.07608669,1.04953947 5.15650774,0.620309211 4.20676161,0.281388158 C6.47519505,7.97754605 3.94808669,12.9306053 3.94808669,12.9306053" id="Fill-4" fill="url(#linearGradient-6)" mask="url(#mask-5)"></path>
                        </g>
                        <path d="M49.4319412,8.57045056 L46.54875,8.57045056 L46.54875,16.5406293 L46.243471,16.5406293 L46.243471,8.57045056 L43.1567604,8.57045056 L43.1567604,8.26346792 L49.4319412,8.26346792 L49.4319412,8.57045056 Z M51.0318297,11.6687012 C51.2240434,11.2290696 51.5029375,10.8870337 51.8685205,10.6425833 C52.2341034,10.398133 52.6788265,10.2759096 53.2027031,10.2759096 C53.8396465,10.2759096 54.3230002,10.4786677 54.6527786,10.88419 C54.982557,11.2897123 55.1474438,11.9283056 55.1474438,12.7999891 L55.1474438,16.5406293 L54.8365114,16.5406293 L54.8365114,12.7886194 C54.8365114,11.9813647 54.6885844,11.4119365 54.3927261,11.0803178 C54.0968677,10.7486991 53.7020818,10.5828923 53.2083564,10.5828923 C52.5601062,10.5828923 52.0597927,10.7742808 51.7074009,11.1570635 C51.3550092,11.5398462 51.129821,12.0306345 51.0318297,12.6294432 L51.0318297,16.5406293 L50.7265506,16.5406293 L50.7265506,13.3912149 L50.715244,13.3912149 L50.715244,13.1922447 C50.715244,13.1391857 50.7190128,13.0861275 50.7265506,13.0330685 L50.7265506,7.67224211 L51.0318297,7.67224211 L51.0318297,11.6687012 Z M59.2065247,16.6600115 C58.4866655,16.6600115 57.8789401,16.379561 57.3833303,15.8186517 C56.8877204,15.2577423 56.6399192,14.5509313 56.6399192,13.6981975 L56.6399192,13.3343663 C56.6399192,12.4437332 56.885836,11.7113406 57.377677,11.1371665 C57.8695179,10.5629924 58.4885499,10.2759096 59.2347913,10.2759096 C59.9131926,10.2759096 60.4540211,10.5004595 60.857293,10.949566 C61.2605649,11.3986724 61.4621978,12.0116841 61.4621978,12.7886194 L61.4621978,13.260463 L56.9451983,13.260463 L56.9451983,13.6981975 C56.9451983,14.4486033 57.1562533,15.0786694 57.5783697,15.5884147 C58.0004861,16.09816 58.543199,16.3530288 59.2065247,16.3530288 C59.5721077,16.3530288 59.923552,16.2848111 60.2608682,16.1483737 C60.5981844,16.0119363 60.8723675,15.8300225 61.0834257,15.6026268 L61.2473718,15.8413911 C61.0325447,16.0801566 60.755535,16.2762824 60.4163344,16.4297745 C60.0771337,16.5832666 59.6738679,16.6600115 59.2065247,16.6600115 Z M59.2347913,10.5828923 C58.6016167,10.5828923 58.0824591,10.8036523 57.6773027,11.2451789 C57.2721464,11.6867055 57.0431894,12.244764 56.9904248,12.9193712 L57.0073848,12.9534804 L61.1569188,12.9534804 L61.1569188,12.7658799 C61.1569188,12.1329619 60.9854366,11.6109072 60.642467,11.1997 C60.2994975,10.7884928 59.8302769,10.5828923 59.2347913,10.5828923 Z" id="The" fill="#1B75BA"></path>
                        <g id="Group-8" transform="translate(41.609907, 15.471118)">
                            <mask id="mask-8" fill="white">
                                <use xlink:href="#path-7"></use>
                            </mask>
                            <g id="Clip-7"></g>
                            <path d="M7.83828093,9.75290227 L2.62659576,9.75290227 L2.62659576,14.6004123 L8.65235733,14.6004123 L8.65235733,15.4110058 L1.66885882,15.4110058 L1.66885882,3.72561751 L8.61245163,3.72561751 L8.61245163,4.54423675 L2.62659576,4.54423675 L2.62659576,8.93428304 L7.83828093,8.93428304 L7.83828093,9.75290227 Z M11.3020962,6.72722137 L11.3898887,8.23604898 C11.6718905,7.70635154 12.0470004,7.29570841 12.5152297,7.00410729 C12.9834589,6.71250617 13.5394729,6.5667078 14.1832882,6.5667078 C15.1197467,6.5667078 15.8327215,6.85429174 16.322234,7.42946827 C16.8117464,8.00464479 17.056499,8.90217422 17.056499,10.1220835 L17.056499,15.4110058 L16.098762,15.4110058 L16.098762,10.1301092 C16.098762,9.13492003 15.9138674,8.43134256 15.5440727,8.01935566 C15.174278,7.60736875 14.6488581,7.40137839 13.9677973,7.40137839 C13.2867366,7.40137839 12.7373735,7.56991596 12.3196917,7.90699615 C11.9020099,8.24407635 11.6000597,8.69618506 11.4138322,9.26333587 L11.4138322,15.4110058 L10.4560952,15.4110058 L10.4560952,6.72722137 L11.3020962,6.72722137 Z M25.8596977,12.1525802 L20.7597485,12.1525802 L19.5865207,15.4110058 L18.5968592,15.4110058 L22.8667697,3.72561751 L23.7686387,3.72561751 L28.0066246,15.4110058 L27.0169631,15.4110058 L25.8596977,12.1525802 Z M21.0630318,11.2938326 L25.5484332,11.2938326 L23.3456382,5.09800858 L23.2977514,5.09800858 L21.0630318,11.2938326 Z M32.7394413,14.7689515 C33.3513319,14.7689515 33.8927139,14.5870379 34.3636036,14.2232053 C34.8344933,13.8593728 35.0699346,13.3537601 35.0699346,12.7063521 L35.9239167,12.7063521 L35.9398789,12.7545061 C35.9611621,13.557078 35.6472404,14.2285531 34.9981043,14.7689515 C34.3489682,15.3093499 33.5960881,15.5795451 32.7394413,15.5795451 C31.5901513,15.5795451 30.6949422,15.1729147 30.0537873,14.3596419 C29.4126325,13.546369 29.0920598,12.5057164 29.0920598,11.2376528 L29.0920598,10.9005743 C29.0920598,9.63786123 29.4113023,8.59988382 30.0497968,7.78661097 C30.6882913,6.97333812 31.5821701,6.5667078 32.7314602,6.5667078 C33.6572772,6.5667078 34.4287798,6.84760375 35.0459911,7.40940407 C35.6632025,7.97120439 35.9611621,8.70955946 35.9398789,9.62449141 L35.9239167,9.67264548 L35.0699346,9.67264548 C35.0699346,8.97708318 34.8438045,8.42197928 34.3915376,8.00731714 C33.9392706,7.59265499 33.385917,7.38532703 32.7314602,7.38532703 C31.8269263,7.38532703 31.1538568,7.71972697 30.7122315,8.38853688 C30.2706061,9.05734679 30.0497968,9.89468423 30.0497968,10.9005743 L30.0497968,11.2376528 C30.0497968,12.2595944 30.2706061,13.1036198 30.7122315,13.7697545 C31.1538568,14.4358892 31.8295867,14.7689515 32.7394413,14.7689515 Z M41.1515641,14.7689515 C41.7634547,14.7689515 42.3048367,14.5870379 42.7757263,14.2232053 C43.246616,13.8593728 43.4820573,13.3537601 43.4820573,12.7063521 L44.3360394,12.7063521 L44.3520017,12.7545061 C44.3732849,13.557078 44.0593631,14.2285531 43.4102271,14.7689515 C42.761091,15.3093499 42.0082109,15.5795451 41.1515641,15.5795451 C40.002274,15.5795451 39.107065,15.1729147 38.4659101,14.3596419 C37.8247552,13.546369 37.5041826,12.5057164 37.5041826,11.2376528 L37.5041826,10.9005743 C37.5041826,9.63786123 37.8234251,8.59988382 38.4619196,7.78661097 C39.100414,6.97333812 39.9942929,6.5667078 41.143583,6.5667078 C42.0694,6.5667078 42.8409026,6.84760375 43.4581139,7.40940407 C44.0753253,7.97120439 44.3732849,8.70955946 44.3520017,9.62449141 L44.3360394,9.67264548 L43.4820573,9.67264548 C43.4820573,8.97708318 43.2559273,8.42197928 42.8036603,8.00731714 C42.3513934,7.59265499 41.7980398,7.38532703 41.143583,7.38532703 C40.2390491,7.38532703 39.5659796,7.71972697 39.1243543,8.38853688 C38.6827289,9.05734679 38.4619196,9.89468423 38.4619196,10.9005743 L38.4619196,11.2376528 C38.4619196,12.2595944 38.6827289,13.1036198 39.1243543,13.7697545 C39.5659796,14.4358892 40.2417095,14.7689515 41.1515641,14.7689515 Z M49.683404,15.5795451 C48.5660387,15.5795451 47.658858,15.1822779 46.9618349,14.3877318 C46.2648117,13.5931856 45.9163054,12.572597 45.9163054,11.3259353 L45.9163054,10.884523 C45.9163054,9.63251083 46.2688023,8.59988382 46.9738066,7.78661097 C47.6788109,6.97333812 48.5527371,6.5667078 49.5956115,6.5667078 C50.6438066,6.5667078 51.4538843,6.90512054 52.0258689,7.58195616 C52.5978536,8.25879179 52.8838416,9.16969722 52.8838416,10.3146998 L52.8838416,11.0610879 L46.8740423,11.0610879 L46.8740423,11.3259353 C46.8740423,12.315774 47.1227854,13.1370602 47.620279,13.7898187 C48.1177727,14.4425772 48.8054741,14.7689515 49.683404,14.7689515 C50.210162,14.7689515 50.6943464,14.6820075 51.1359717,14.5081169 C51.5775971,14.3342264 51.9447259,14.1001464 52.2373692,13.8058701 L52.6444074,14.4639757 C52.3411225,14.7850045 51.9433996,15.0511868 51.4512268,15.2625308 C50.959054,15.4738747 50.3697856,15.5795451 49.683404,15.5795451 Z M49.5956115,7.38532703 C48.8613428,7.38532703 48.2574425,7.65017178 47.7838924,8.17986923 C47.3103423,8.70956668 47.0336656,9.38104176 46.9538537,10.1943146 L46.9777972,10.2424687 L51.9261047,10.2424687 L51.9261047,10.0418267 C51.9261047,9.27135769 51.725248,8.63599781 51.3235285,8.135728 C50.9218091,7.63545819 50.3458425,7.38532703 49.5956115,7.38532703 Z M59.9870573,13.1878928 C59.9870573,12.7812564 59.8207851,12.4267924 59.4882359,12.1244903 C59.1556867,11.8221883 58.5557769,11.5747323 57.6884886,11.3821151 C56.6668974,11.1680959 55.9073664,10.8751615 55.4098728,10.5033032 C54.9123792,10.1314449 54.6636361,9.61111862 54.6636361,8.94230872 C54.6636361,8.27884929 54.9416431,7.71705739 55.4976654,7.25691617 C56.0536876,6.79677496 56.7892755,6.5667078 57.7044509,6.5667078 C58.6675134,6.5667078 59.4363556,6.81148855 60.0110007,7.30105741 C60.5856457,7.79062626 60.8596622,8.39388375 60.8330582,9.11084797 L60.8170959,9.15900204 L59.9311893,9.15900204 C59.9311893,8.68280939 59.7276722,8.26815346 59.320632,7.91502183 C58.9135917,7.5618902 58.3748701,7.38532703 57.7044509,7.38532703 C57.0127485,7.38532703 56.4913192,7.5378134 56.1401472,7.84279072 C55.7889752,8.14776804 55.6133919,8.50356958 55.6133919,8.910206 C55.6133919,9.30614147 55.7637019,9.63385341 56.0643264,9.89335165 C56.3649509,10.1528499 56.9648606,10.3815795 57.8640737,10.5795472 C58.8750233,10.8042673 59.639875,11.1172657 60.1586518,11.5185516 C60.6774286,11.9198375 60.9368131,12.4602278 60.9368131,13.1397387 C60.9368131,13.8620534 60.6455043,14.4492597 60.0628781,14.9013752 C59.4802519,15.3534907 58.7100795,15.5795451 57.7523377,15.5795451 C56.7041426,15.5795451 55.8807631,15.3280763 55.2821745,14.8251313 C54.683586,14.3221862 54.4002583,13.7229415 54.432183,13.0273792 L54.4481453,12.9792251 L55.3260708,12.9792251 C55.3633163,13.6052312 55.6173801,14.0600151 56.0882698,14.3435905 C56.5591595,14.6271659 57.1138432,14.7689515 57.7523377,14.7689515 C58.4440401,14.7689515 58.9894126,14.6137899 59.3884717,14.3034621 C59.7875307,13.9931343 59.9870573,13.6212816 59.9870573,13.1878928 Z M68.3113875,13.1878928 C68.3113875,12.7812564 68.1451154,12.4267924 67.8125662,12.1244903 C67.4800169,11.8221883 66.8801072,11.5747323 66.0128188,11.3821151 C64.9912277,11.1680959 64.2316966,10.8751615 63.734203,10.5033032 C63.2367094,10.1314449 62.9879663,9.61111862 62.9879663,8.94230872 C62.9879663,8.27884929 63.2659733,7.71705739 63.8219956,7.25691617 C64.3780179,6.79677496 65.1136057,6.5667078 66.0287811,6.5667078 C66.9918436,6.5667078 67.7606859,6.81148855 68.3353309,7.30105741 C68.9099759,7.79062626 69.1839924,8.39388375 69.1573884,9.11084797 L69.1414262,9.15900204 L68.2555195,9.15900204 C68.2555195,8.68280939 68.0520024,8.26815346 67.6449622,7.91502183 C67.237922,7.5618902 66.6992003,7.38532703 66.0287811,7.38532703 C65.3370788,7.38532703 64.8156494,7.5378134 64.4644774,7.84279072 C64.1133055,8.14776804 63.9377221,8.50356958 63.9377221,8.910206 C63.9377221,9.30614147 64.0880321,9.63385341 64.3886566,9.89335165 C64.6892811,10.1528499 65.2891909,10.3815795 66.1884039,10.5795472 C67.1993535,10.8042673 67.9642052,11.1172657 68.482982,11.5185516 C69.0017588,11.9198375 69.2611433,12.4602278 69.2611433,13.1397387 C69.2611433,13.8620534 68.9698345,14.4492597 68.3872083,14.9013752 C67.8045821,15.3534907 67.0344097,15.5795451 66.076668,15.5795451 C65.0284728,15.5795451 64.2050933,15.3280763 63.6065048,14.8251313 C63.0079162,14.3221862 62.7245885,13.7229415 62.7565132,13.0273792 L62.7724755,12.9792251 L63.650401,12.9792251 C63.6876466,13.6052312 63.9417103,14.0600151 64.4126,14.3435905 C64.8834897,14.6271659 65.4381735,14.7689515 66.076668,14.7689515 C66.7683703,14.7689515 67.3137428,14.6137899 67.7128019,14.3034621 C68.1118609,13.9931343 68.3113875,13.6212816 68.3113875,13.1878928 Z" id="EnAccess" fill="#1B75BA" mask="url(#mask-8)"></path>
                        </g>
                        <path d="M47.6247395,39.7970321 L43.5769652,39.7970321 L43.5769652,43.8673945 L43.2716861,43.8673945 L43.2716861,35.5902331 L48.2013777,35.5902331 L48.2013777,35.8972157 L43.5769652,35.8972157 L43.5769652,39.4786798 L47.6247395,39.4786798 L47.6247395,39.7970321 Z M48.7696491,40.6725011 C48.7696491,39.7704982 49.0174503,39.0333683 49.5130601,38.4610892 C50.00867,37.88881 50.6521994,37.6026748 51.4436676,37.6026748 C52.2389047,37.6026748 52.8843185,37.88881 53.3799283,38.4610892 C53.8755382,39.0333683 54.1233394,39.7704982 54.1233394,40.6725011 L54.1233394,40.9112654 C54.1233394,41.8170582 53.8755382,42.5560831 53.3799283,43.1283622 C52.8843185,43.7006413 52.2426735,43.9867766 51.4549742,43.9867766 C50.6597371,43.9867766 50.0133811,43.7006413 49.5158868,43.1283622 C49.0183925,42.5560831 48.7696491,41.8170582 48.7696491,40.9112654 L48.7696491,40.6725011 Z M49.0749281,40.9112654 C49.0749281,41.6844107 49.289752,42.3391109 49.7194062,42.8753858 C50.1490604,43.4116606 50.7275772,43.679794 51.4549742,43.679794 C52.1710645,43.679794 52.7439281,43.4107131 53.1735823,42.8725433 C53.6032365,42.3343736 53.8180603,41.6806208 53.8180603,40.9112654 L53.8180603,40.6725011 C53.8180603,39.9183054 53.6013521,39.26929 53.167929,38.7254353 C52.7345059,38.1815807 52.1597579,37.9096574 51.4436676,37.9096574 C50.7238084,37.9096574 50.1490604,38.1815807 49.7194062,38.7254353 C49.289752,39.26929 49.0749281,39.9183054 49.0749281,40.6725011 L49.0749281,40.9112654 Z M59.6862024,42.7872704 C59.4939887,43.1662632 59.2207478,43.4609257 58.8664716,43.6712667 C58.5121954,43.8816077 58.0825476,43.9867766 57.5775155,43.9867766 C56.9481099,43.9867766 56.4553341,43.7622267 56.0991734,43.3131203 C55.7430127,42.8640138 55.564935,42.167625 55.564935,41.2239329 L55.564935,37.716372 L55.8702141,37.716372 L55.8702141,41.2353026 C55.8702141,42.0690868 56.0228521,42.6849408 56.3281327,43.0828833 C56.6334133,43.4808257 57.0461012,43.679794 57.5662089,43.679794 C58.1880768,43.679794 58.669546,43.5272516 59.0106312,43.2221624 C59.3517163,42.9170732 59.5731356,42.5143994 59.6748958,42.0141289 L59.6748958,37.716372 L59.9858282,37.716372 L59.9858282,41.3376302 L59.9971348,41.3376302 C59.9971348,41.3868992 59.9952504,41.4342726 59.9914815,41.4797517 C59.9877126,41.5252309 59.9858282,41.5782891 59.9858282,41.6389279 L59.9858282,43.8673945 L59.731429,43.8673945 L59.6862024,42.7872704 Z M62.1849681,37.716372 L62.2245413,38.9556723 C62.4129862,38.5274104 62.6843426,38.1948492 63.0386189,37.9579787 C63.3928951,37.7211082 63.8281961,37.6026748 64.3445349,37.6026748 C65.0116295,37.6026748 65.511943,37.8139601 65.8454903,38.2365371 C66.1790376,38.659114 66.3458088,39.3289738 66.3458088,40.2461363 L66.3458088,43.8673945 L66.0405297,43.8673945 L66.0405297,40.2347666 C66.0405297,39.3820328 65.8888339,38.7813382 65.5854378,38.4326649 C65.2820416,38.0839915 64.8702959,37.9096574 64.3501882,37.9096574 C63.7094758,37.9096574 63.2195267,38.097256 62.880326,38.4724589 C62.5411254,38.8476618 62.3244171,39.3308703 62.2301947,39.9220991 L62.2301947,43.8673945 L61.9249156,43.8673945 L61.9249156,40.71798 L61.9079556,40.71798 C61.9079556,40.6459714 61.9088979,40.5730164 61.9107823,40.4991128 C61.9126668,40.4252092 61.9173778,40.3503592 61.9249156,40.2745607 L61.9249156,37.716372 L62.1849681,37.716372 Z M67.9796171,40.7861984 C67.9796171,39.8121869 68.1831345,39.0381057 68.5901753,38.4639316 C68.997216,37.8897575 69.562542,37.6026748 70.2861701,37.6026748 C70.761051,37.6026748 71.1727967,37.7097386 71.5214196,37.9238696 C71.8700425,38.1380005 72.1479945,38.430768 72.3552838,38.802181 L72.3552838,34.9990072 L72.6605628,34.9990072 L72.6605628,39.6264862 C72.6605628,39.6302761 72.6624473,39.6321711 72.6662161,39.6321711 L72.6662161,42.1391959 C72.6624473,42.1467758 72.6605628,42.1524606 72.6605628,42.1562505 L72.6605628,43.8673945 L72.3665904,43.8673945 L72.3552838,42.9180222 C72.1517634,43.247746 71.8728692,43.5082996 71.518593,43.699691 C71.1643167,43.8910823 70.7497444,43.9867766 70.2748634,43.9867766 C69.5550043,43.9867766 68.9925049,43.710116 68.5873486,43.1567865 C68.1821923,42.603457 67.9796171,41.8530625 67.9796171,40.9055805 L67.9796171,40.7861984 Z M68.2962028,40.9055805 C68.2962028,41.7545244 68.462974,42.4291215 68.7965213,42.929392 C69.1300686,43.4296625 69.62096,43.679794 70.2692101,43.679794 C70.8006245,43.679794 71.2415787,43.5594656 71.5920861,43.3188051 C71.9425934,43.0781447 72.1969901,42.7569531 72.3552838,42.3552207 L72.3552838,39.4445706 C72.2045279,39.0087289 71.9661488,38.6439538 71.6401393,38.3502343 C71.3141298,38.0565149 70.8609268,37.9096574 70.2805168,37.9096574 C69.6322666,37.9096574 69.1394908,38.1758959 68.8021746,38.7083807 C68.4648584,39.2408656 68.2962028,39.9334646 68.2962028,40.7861984 L68.2962028,40.9055805 Z M78.4382519,42.7304217 C78.2271937,43.1018347 77.9124956,43.4040769 77.4941481,43.6371575 C77.0758006,43.8702381 76.5688917,43.9867766 75.9734061,43.9867766 C75.4043027,43.9867766 74.9576952,43.8304444 74.6335701,43.5177753 C74.3094451,43.2051063 74.147385,42.7834831 74.147385,42.2528932 C74.147385,41.737463 74.3895329,41.3054177 74.8738361,40.9567443 C75.3581392,40.6080709 75.9639802,40.4337368 76.6913772,40.4337368 L78.4382519,40.4337368 L78.4382519,39.5355284 C78.4382519,39.0238881 78.2752495,38.6250042 77.94924,38.3388646 C77.6232305,38.052725 77.1643743,37.9096574 76.5726576,37.9096574 C76.0186298,37.9096574 75.5729645,38.0441978 75.2356483,38.3132827 C74.8983321,38.5823676 74.7296765,38.9291408 74.7296765,39.3536128 L74.4752773,39.342243 L74.4639707,39.3138187 C74.4413573,38.8362878 74.6260304,38.431719 75.0179956,38.1001003 C75.4099608,37.7684816 75.9281763,37.6026748 76.5726576,37.6026748 C77.2284455,37.6026748 77.7541986,37.7694291 78.1499327,38.1029428 C78.5456669,38.4364564 78.7435309,38.9177701 78.7435309,39.5468981 L78.7435309,42.6280942 C78.7435309,42.8441201 78.7557797,43.0544579 78.7802775,43.2591141 C78.8047753,43.4637702 78.8452903,43.6665283 78.9018238,43.8673945 L78.5626248,43.8673945 C78.5136292,43.5983096 78.4806518,43.3964989 78.4636918,43.2619565 C78.4467318,43.127414 78.4382519,42.9824515 78.4382519,42.8270644 L78.4382519,42.7304217 Z M75.9734061,43.6854788 C76.5801983,43.6854788 77.0937028,43.5509384 77.5139347,43.2818535 C77.9341666,43.0127686 78.2422693,42.6280967 78.4382519,42.1278262 L78.4382519,40.7464043 L76.7083371,40.7464043 C76.0751626,40.7464043 75.5409296,40.8932618 75.105622,41.1869813 C74.6703145,41.4807007 74.452664,41.8435809 74.452664,42.2756327 C74.452664,42.6887348 74.5911689,43.0269808 74.8681828,43.2903808 C75.1451966,43.5537808 75.5136007,43.6854788 75.9734061,43.6854788 Z M81.3440563,36.0563919 L81.3440563,37.716372 L82.8478384,37.716372 L82.8478384,38.0290395 L81.3440563,38.0290395 L81.3440563,42.2813175 C81.3440563,42.7853779 81.4288552,43.1444682 81.5984556,43.3585992 C81.7680559,43.5727301 81.9923018,43.679794 82.2712002,43.679794 C82.3729604,43.679794 82.4634125,43.6760041 82.5425593,43.6684242 C82.6217062,43.6608444 82.7310025,43.6475798 82.8704517,43.6286302 L82.9269848,43.9071885 C82.8327624,43.9375079 82.7347726,43.9583522 82.6330124,43.969722 C82.5312522,43.9810918 82.4163026,43.9867766 82.2881601,43.9867766 C81.8773504,43.9867766 81.5654789,43.8522362 81.3525363,43.5831513 C81.1395937,43.3140664 81.0331239,42.8801261 81.0331239,42.2813175 L81.0331239,38.0290395 L79.9024607,38.0290395 L79.9024607,37.716372 L81.0331239,37.716372 L81.0331239,36.0563919 L81.3440563,36.0563919 Z M84.6682062,43.8673945 L84.3629271,43.8673945 L84.3629271,37.716372 L84.6682062,37.716372 L84.6682062,43.8673945 Z M84.6682062,35.7835184 L84.3629271,35.7835184 L84.3629271,34.9990072 L84.6682062,34.9990072 L84.6682062,35.7835184 Z M86.1946015,40.6725011 C86.1946015,39.7704982 86.4424027,39.0333683 86.9380126,38.4610892 C87.4336224,37.88881 88.0771518,37.6026748 88.86862,37.6026748 C89.6638571,37.6026748 90.3092709,37.88881 90.8048808,38.4610892 C91.3004906,39.0333683 91.5482919,39.7704982 91.5482919,40.6725011 L91.5482919,40.9112654 C91.5482919,41.8170582 91.3004906,42.5560831 90.8048808,43.1283622 C90.3092709,43.7006413 89.667626,43.9867766 88.8799267,43.9867766 C88.0846896,43.9867766 87.4383336,43.7006413 86.9408393,43.1283622 C86.4433449,42.5560831 86.1946015,41.8170582 86.1946015,40.9112654 L86.1946015,40.6725011 Z M86.4998806,40.9112654 C86.4998806,41.6844107 86.7147045,42.3391109 87.1443586,42.8753858 C87.5740128,43.4116606 88.1525297,43.679794 88.8799267,43.679794 C89.5960169,43.679794 90.1688806,43.4107131 90.5985348,42.8725433 C91.0281889,42.3343736 91.2430128,41.6806208 91.2430128,40.9112654 L91.2430128,40.6725011 C91.2430128,39.9183054 91.0263045,39.26929 90.5928814,38.7254353 C90.1594584,38.1815807 89.5847103,37.9096574 88.86862,37.9096574 C88.1487609,37.9096574 87.5740128,38.1815807 87.1443586,38.7254353 C86.7147045,39.26929 86.4998806,39.9183054 86.4998806,40.6725011 L86.4998806,40.9112654 Z M93.2725533,37.716372 L93.3121265,38.9556723 C93.5005713,38.5274104 93.7719277,38.1948492 94.126204,37.9579787 C94.4804802,37.7211082 94.9157812,37.6026748 95.43212,37.6026748 C96.0992146,37.6026748 96.5995281,37.8139601 96.9330754,38.2365371 C97.2666227,38.659114 97.4333939,39.3289738 97.4333939,40.2461363 L97.4333939,43.8673945 L97.1281148,43.8673945 L97.1281148,40.2347666 C97.1281148,39.3820328 96.976419,38.7813382 96.6730229,38.4326649 C96.3696267,38.0839915 95.957881,37.9096574 95.4377733,37.9096574 C94.797061,37.9096574 94.3071118,38.097256 93.9679111,38.4724589 C93.6287105,38.8476618 93.4120022,39.3308703 93.3177798,39.9220991 L93.3177798,43.8673945 L93.0125007,43.8673945 L93.0125007,40.71798 L92.9955408,40.71798 C92.9955408,40.6459714 92.996483,40.5730164 92.9983674,40.4991128 C93.0002519,40.4252092 93.0049629,40.3503592 93.0125007,40.2745607 L93.0125007,37.716372 L93.2725533,37.716372 Z" id="Foundation" fill="#1B75BA"></path>
                        <g id="Group-17" transform="translate(4.160991, 17.911908)" fill="#FFFFFF">
                            <path d="M13.1793833,22.0914112 C13.0268136,22.3250296 12.867309,22.5621349 12.7008693,22.8062138 C8.79647307,22.5970033 5.27003344,21.8926612 3.39065263,20.8187138 C2.97802105,20.5816086 2.66594675,20.3410164 2.44402724,20.0969375 C2.28105511,19.821477 2.12848545,19.5425296 1.98285077,19.2531217 C2.20823777,19.5076612 2.53418204,19.7587138 2.96068359,20.0027928 C5.00303653,21.1708849 8.90743282,21.9135822 13.1793833,22.0914112" id="Fill-9"></path>
                            <path d="M8.86939443,15.9756645 C8.72375975,16.1988224 8.58159257,16.4115197 8.44636037,16.6137566 C5.59608173,16.2162566 3.16883715,15.5607303 1.66047802,14.6994803 C0.745060062,14.1764539 0.252676161,13.6255329 0.152118885,13.0815855 C0.138248916,12.8479671 0.131313932,12.6143487 0.131313932,12.3807303 C0.2353387,12.9281645 0.727722601,13.4790855 1.64314056,14.0021118 C3.23125201,14.9052039 5.82840372,15.5851382 8.86939443,15.9756645" id="Fill-11"></path>
                            <path d="M12.2605325,9.51102434 C12.1703777,9.73766908 12.0767554,9.96082697 11.9831331,10.1770112 C8.0995418,9.91549803 4.63898452,9.19023487 2.74573375,8.10931382 C1.51477399,7.40497171 1.11947988,6.65181382 1.44889164,5.9300375 L1.61879876,5.57089276 C1.66040867,5.48372171 1.70548607,5.39306382 1.75056347,5.30589276 C1.40034675,6.02069539 1.7817709,6.77385329 3.00232817,7.47122171 C4.89211146,8.55214276 8.37000619,9.27043224 12.2605325,9.51102434" id="Fill-13"></path>
                            <path d="M14.1468136,3.53095066 C14.1052037,3.71924013 14.0635938,3.90752961 14.0185164,4.09233224 C10.7625412,3.98424013 7.75622539,3.42983224 6.20972384,2.54417434 C5.01343901,1.86424013 4.90941424,1.11456908 5.70346997,0.448582237 C5.86644211,0.319569079 6.02941424,0.197529605 6.19932136,0.0754901316 C5.44687554,0.703121711 5.54396533,1.4144375 6.6743678,2.05950329 C8.1515195,2.90680592 11.0364731,3.43331908 14.1468136,3.53095066" id="Fill-15"></path>
                        </g>
                    </g>
                </g>
            </g>
        </g>
    </g>
</svg>